<svg xmlns="http://www.w3.org/2000/svg" viewBox="0 0 640 420" role="img" aria-label="Kit CFTV">
  <rect width="640" height="420" rx="28" fill="#f3f6fb"/>
  <path d="M0 316h640v104H0z" fill="#e1eaf4"/>
  <rect x="204" y="92" width="232" height="152" rx="20" fill="#ffffff" stroke="#b9c8d8" stroke-width="9"/>
  <rect x="222" y="112" width="196" height="104" rx="12" fill="#07111f"/>
  <path d="M244 190l42-40 34 28 44-48 34 60z" fill="#0f78bf"/>
  <rect x="270" y="244" width="100" height="36" rx="12" fill="#143d73"/>
  <rect x="222" y="282" width="196" height="22" rx="11" fill="#0f78bf"/>
  <g fill="#ffffff" stroke="#b9c8d8" stroke-width="7">
    <rect x="88" y="226" width="118" height="58" rx="17"/>
    <rect x="434" y="226" width="118" height="58" rx="17"/>
  </g>
  <g fill="#07111f">
    <circle cx="148" cy="255" r="20"/>
    <circle cx="494" cy="255" r="20"/>
  </g>
  <g fill="#0f78bf">
    <circle cx="148" cy="255" r="10"/>
    <circle cx="494" cy="255" r="10"/>
  </g>
</svg>
