<svg xmlns="http://www.w3.org/2000/svg" viewBox="0 0 640 420" role="img" aria-label="Alarme residencial">
  <rect width="640" height="420" rx="28" fill="#fff7ed"/>
  <path d="M0 312h640v108H0z" fill="#fde8cc"/>
  <rect x="218" y="74" width="204" height="262" rx="30" fill="#ffffff" stroke="#ddb68b" stroke-width="10"/>
  <rect x="248" y="110" width="144" height="54" rx="14" fill="#143d73"/>
  <circle cx="274" cy="200" r="15" fill="#0f78bf"/>
  <circle cx="320" cy="200" r="15" fill="#16a34a"/>
  <circle cx="366" cy="200" r="15" fill="#d97706"/>
  <g fill="#d8e3ef">
    <rect x="252" y="238" width="40" height="28" rx="8"/>
    <rect x="300" y="238" width="40" height="28" rx="8"/>
    <rect x="348" y="238" width="40" height="28" rx="8"/>
    <rect x="252" y="276" width="40" height="28" rx="8"/>
    <rect x="300" y="276" width="40" height="28" rx="8"/>
    <rect x="348" y="276" width="40" height="28" rx="8"/>
  </g>
  <path d="M178 124c-28 32-28 74 0 106M462 124c28 32 28 74 0 106" fill="none" stroke="#d97706" stroke-width="13" stroke-linecap="round"/>
</svg>
